<?xml version="1.0" encoding="utf-8"?>
<!-- Generator: Adobe Illustrator 23.0.6, SVG Export Plug-In . SVG Version: 6.00 Build 0)  -->
<svg version="1.1" id="Capa_1" xmlns="http://www.w3.org/2000/svg" xmlns:xlink="http://www.w3.org/1999/xlink" x="0px" y="0px"
	 viewBox="0 0 560 288" style="enable-background:new 0 0 560 288;" xml:space="preserve">
<style type="text/css">
	.st0{fill:#FFFFFF;}
</style>
<g>
	<g>
		<path class="st0" d="M943,833.97c-533.27,0-1066.53,0-1599.9,0c0-411.87,0-823.76,0-1235.82c533.23,0,1066.57,0,1599.9,0
			C943,10.01,943,421.98,943,833.97z M-41.51,114.28c-11.26,0-22.03-0.08-32.8,0.16c-0.88,0.02-2.19,2.15-2.48,3.47
			c-3.45,15.78-6.56,31.64-10.12,47.39c-2.78,12.31-5.45,24.71-9.4,36.66c-1.59,4.82-5.93,9.17-9.98,12.6
			c-3.67,3.11-8.79,3.14-13.16,0.44c-4.1-2.53-4.36-6.81-4.06-11.1c0.13-1.82,0.37-3.65,0.75-5.44
			c4.39-20.85,8.83-41.69,13.24-62.54c1.49-7.05,2.96-14.11,4.54-21.67c-8.79,0-16.77,0-24.75,0c-9.2,0-9.2,0-11.76,8.58
			c-0.12,0.4-0.58,0.71-0.91,1.09c-4.54-7.83-8.1-10.09-16.66-10.62c-15.81-0.98-29.12,4.47-39.85,15.98
			c-17.77,19.06-25.54,42.16-26.56,67.77c-0.32,7.96-4.47,13.14-10.91,16.59c-4.39,2.35-9.49,2.66-13.82-0.38
			c-4.04-2.84-2.92-7.43-2.77-11.54c0.03-0.82,0.35-1.62,0.52-2.44c7.59-35.82,15.19-71.64,22.77-107.47
			c1.81-8.56,3.58-17.13,5.52-26.42c-10.63,1.37-20.48,2.82-30.37,3.81c-3.77,0.38-5.51,1.79-6.25,5.51
			c-2.87,14.36-5.99,28.67-9.04,42.99c-0.42,1.97-0.97,3.9-1.65,6.61c-5.34-8.77-9.08-10.77-18.55-11.09
			c-15.48-0.53-28.44,5.1-38.67,16.48c-20.04,22.29-28.05,48.87-25.77,78.39c1.64,21.2,17.55,32.95,38.55,29.77
			c9.96-1.51,17.35-7.27,23.83-14.5c1.86-2.07,3.6-4.24,5.75-6.79c0.67,1.62,1.17,2.63,1.51,3.69c3.6,11.23,10.37,16.33,22.09,16.57
			c12.84,0.27,23.85-3.93,32.7-13.41c1.98-2.12,3.96-4.25,5.69-6.11c3.25,4.52,5.69,9.2,9.29,12.69
			c12.33,11.94,32.92,11.16,46.83-1.19c4.07-3.62,8.49-6.85,12.75-10.26c-0.51-0.18-0.06,1,0.27,2.22
			c3.05,11.35,9.22,16.56,20.84,17.41c11.23,0.82,20.86-3.32,29.7-9.8c1.35-0.99,2.7-1.97,5.08-3.71
			c-0.89,4.85-1.51,8.23-2.23,12.13c2.05,0.1,3.82,0.25,5.6,0.25c7.83,0.03,15.68-0.25,23.49,0.12c4.22,0.2,5.73-1.3,6.55-5.32
			c5.54-27.07,11.58-54.04,16.84-81.16c1.3-6.7,4.92-10.65,10.06-13.94c8.14-5.21,12.42-3.57,15.05,5.59
			c1.84,6.38,4.16,8.8,10.26,7.56c9.06-1.85,14.19,4.8,21.9,7.72c-4.66,9.07-8.97,17.5-13.34,25.89c-0.36,0.7-1.05,1.33-1.73,1.75
			c-18.72,11.6-14.63,41.96,7.14,49.91c18.36,6.7,36.04,3.57,51.95-8.33c8.78-6.57,17.78-12.83,26.71-19.19
			c0.13-0.1,0.56,0.22,1.33,0.54c-1.92,9.3-3.86,18.69-5.96,28.87c9.9,0,19.35-0.29,28.77,0.12c4.7,0.21,6.24-1.54,7.12-5.88
			c4.51-22.35,9.02-44.72,14.19-66.92c1.71-7.32,4.99-14.39,8.37-21.17c1.43-2.86,4.63-5.33,7.61-6.83
			c6.5-3.26,12.04-0.33,13.42,6.81c0.59,3.05,0.77,6.36,0.24,9.4c-1.82,10.33-4.24,20.55-6.04,30.88
			c-1.76,10.12-3.93,20.3-4.32,30.51c-0.46,12.2,8.73,21.92,20.77,23.77c15.91,2.44,28.78-3.02,38.88-15.38
			c1.1-1.34,2.17-2.71,3.59-4.48c0.88,1.5,1.43,2.3,1.84,3.17c5.03,10.62,13.6,15.95,25.12,17.12c15.45,1.57,26.46-5.89,35.72-17.13
			c1.2-1.46,2.49-2.85,4.17-4.76c0.63,2.16,0.98,3.41,1.35,4.66c3.39,11.54,9.54,16.63,21.53,17.27c10.8,0.58,20.24-3.27,28.75-9.67
			c1.42-1.07,2.81-2.16,5.03-3.88c-0.66,4.62-1.18,8.23-1.78,12.38c10.34,0,19.98-0.16,29.61,0.08c3.74,0.1,5.18-1.19,5.9-4.83
			c3.17-16.01,6.49-31.99,10.05-47.92c2.53-11.35,4.95-22.78,8.55-33.8c1.55-4.76,5.27-9.41,9.19-12.68
			c7.29-6.08,15.64-2.12,16.38,7.27c0.26,3.29,0.17,6.71-0.44,9.95c-1.76,9.31-4.07,18.53-5.8,27.85c-1.76,9.48-3.97,19-4.37,28.58
			c-0.58,14.1,7.77,24.12,20.43,26.16c15.63,2.52,28.54-2.49,38.66-14.67c1.32-1.59,2.56-3.24,3.91-4.95
			c0.6,0.64,0.86,0.86,1.04,1.13c0.27,0.42,0.5,0.86,0.72,1.31c5.39,11.3,14.44,17.1,26.84,17.74c15.06,0.78,26.08-6.46,34.97-17.84
			c1.04-1.33,2.17-2.58,3.51-4.17c6.99,18.19,13.14,23.15,26.51,21.93c10.36-0.94,18.02-9.3,20.66-22.76
			c-0.97-0.09-1.91-0.24-2.85-0.27c-9.41-0.3-11.72-2.85-11.05-12.31c0.1-1.49,0.35-2.98,0.66-4.44
			c5.63-26.54,11.3-53.08,16.92-79.62c0.29-1.35,0.28-2.77,0.44-4.54c-8.9,0-17.22,0-25.53,0c-8.27,0-8.26,0.01-10.42,8.23
			c-0.14,0.53-0.64,0.97-1.31,1.94c-3.07-9.17-10.17-10.85-18.04-11.16c-16.3-0.65-29.46,5.88-40.03,17.93
			c-16.42,18.71-23.61,41.02-24.88,65.48c-0.36,6.97-3.82,12.03-9.06,15.86c-4.41,3.22-9.72,3.92-14.68,1.32
			c-4.78-2.51-4.9-7.45-4.07-11.91c1.9-10.12,4.7-20.09,6.41-30.24c1.98-11.77,4.32-23.66,4.42-35.51
			c0.11-12.63-7.86-20.05-20.26-22.21c-11.28-1.96-21.03,1.3-29.69,8.48c-1.42,1.17-2.85,2.31-5.38,4.36
			c0.92-5.08,1.56-8.61,2.27-12.56c-8.9,0-17.38-0.1-25.86,0.03c-10.32,0.16-8.1-2.02-10.45,8.75c-4.93,22.61-9.51,45.29-14.43,67.9
			c-1.79,8.22-4.89,16-11.24,21.89c-4.24,3.93-9.44,5.11-14.82,2.84c-5.3-2.23-5.26-7.19-5.04-11.96c0.08-1.65,0.29-3.32,0.63-4.94
			c5.5-26.23,11.04-52.46,16.56-78.69c0.37-1.74,0.62-3.5,0.98-5.54c-11.8,0-23.06,0-34.32,0c-0.92,3.62-1.77,6.97-2.91,11.49
			c-2.48-10.1-9.37-12.27-17.32-12.72c-17.1-0.96-30.73,6-41.7,18.69c-15.95,18.45-22.62,40.5-24.07,64.32
			c-0.36,5.87-3.02,10.1-6.53,14.09c-3.97,4.51-11.48,6.19-16.5,3.91c-5.85-2.65-5.56-8.09-4.78-12.95
			c1.44-8.86,3.49-17.63,5.55-26.38c3.02-12.79,6.67-25.45,5.63-38.85c-0.89-11.43-8.48-19.96-19.69-22.01
			c-11.8-2.15-22.06,0.94-31.07,8.67c-1.2,1.03-2.44,2.01-3.67,3.02c-0.39-0.18-0.78-0.36-1.17-0.54
			c4.21-19.68,8.42-39.36,12.81-59.87c-10.79,1.38-20.63,2.82-30.53,3.82c-3.76,0.38-5.43,1.81-6.21,5.56
			c-7.69,36.66-16.01,73.19-23.11,109.96c-2.31,11.97-11.14,15.28-19.18,20.4c-2.05-32.86-4.08-65.27-6.13-98.04
			c-9.7,1.25-18.73,2.83-27.84,3.43c-6.14,0.41-8.67,2.95-10.37,8.82c-3.13,10.8-7.46,21.25-11.66,32.87
			c-4.08-3.08-7.77-5.01-10.06-8c-0.95-1.24,1.14-4.75,1.74-7.25c3.29-13.7-6.93-25.13-20.52-21.82
			c-6.68,1.63-12.69,6.11-18.91,9.47c-2.04,1.1-3.77,2.76-6.58,4.87C-43.2,123.7-42.41,119.33-41.51,114.28z"/>
		<path d="M-41.51,114.28c-0.9,5.04-1.69,9.41-2.73,15.19c2.82-2.11,4.55-3.77,6.58-4.87c6.22-3.37,12.23-7.84,18.91-9.47
			c13.59-3.31,23.8,8.12,20.52,21.82c-0.6,2.5-2.69,6.01-1.74,7.25c2.3,3,5.98,4.92,10.06,8c4.2-11.62,8.52-22.07,11.66-32.87
			c1.7-5.86,4.23-8.41,10.37-8.82c9.1-0.61,18.14-2.19,27.84-3.43c2.05,32.78,4.08,65.19,6.13,98.04
			c8.04-5.12,16.87-8.42,19.18-20.4c7.1-36.77,15.42-73.3,23.11-109.96c0.79-3.75,2.45-5.18,6.21-5.56
			c9.89-1.01,19.74-2.44,30.53-3.82c-4.39,20.51-8.6,40.19-12.81,59.87c0.39,0.18,0.78,0.36,1.17,0.54
			c1.22-1.01,2.47-1.99,3.67-3.02c9.01-7.74,19.27-10.83,31.07-8.67c11.21,2.05,18.81,10.58,19.69,22.01
			c1.04,13.4-2.61,26.06-5.63,38.85c-2.07,8.74-4.12,17.52-5.55,26.38c-0.79,4.86-1.08,10.3,4.78,12.95
			c5.02,2.28,12.53,0.61,16.5-3.91c3.51-3.99,6.17-8.22,6.53-14.09c1.45-23.82,8.11-45.87,24.07-64.32
			c10.97-12.69,24.6-19.65,41.7-18.69c7.95,0.45,14.85,2.62,17.32,12.72c1.15-4.51,2-7.86,2.91-11.49c11.26,0,22.52,0,34.32,0
			c-0.36,2.04-0.62,3.8-0.98,5.54c-5.52,26.23-11.06,52.46-16.56,78.69c-0.34,1.62-0.55,3.29-0.63,4.94
			c-0.22,4.78-0.26,9.74,5.04,11.96c5.39,2.26,10.59,1.09,14.82-2.84c6.35-5.89,9.45-13.67,11.24-21.89
			c4.92-22.61,9.5-45.29,14.43-67.9c2.35-10.77,0.13-8.59,10.45-8.75c8.48-0.13,16.96-0.03,25.86-0.03
			c-0.71,3.95-1.35,7.48-2.27,12.56c2.52-2.04,3.96-3.19,5.38-4.36c8.66-7.17,18.41-10.44,29.69-8.48
			c12.4,2.16,20.37,9.58,20.26,22.21c-0.11,11.85-2.44,23.74-4.42,35.51c-1.71,10.15-4.51,20.11-6.41,30.24
			c-0.84,4.47-0.71,9.4,4.07,11.91c4.96,2.61,10.27,1.91,14.68-1.32c5.24-3.83,8.7-8.9,9.06-15.86
			c1.27-24.46,8.45-46.77,24.88-65.48c10.58-12.05,23.73-18.58,40.03-17.93c7.87,0.31,14.97,2,18.04,11.16
			c0.67-0.97,1.17-1.41,1.31-1.94c2.16-8.22,2.15-8.23,10.42-8.23c8.31,0,16.63,0,25.53,0c-0.16,1.77-0.15,3.18-0.44,4.54
			c-5.62,26.54-11.28,53.08-16.92,79.62c-0.31,1.46-0.56,2.95-0.66,4.44c-0.67,9.47,1.64,12.01,11.05,12.31
			c0.94,0.03,1.89,0.17,2.85,0.27c-2.64,13.46-10.3,21.81-20.66,22.76c-13.37,1.22-19.52-3.74-26.51-21.93
			c-1.34,1.59-2.47,2.85-3.51,4.17c-8.89,11.38-19.91,18.62-34.97,17.84c-12.4-0.64-21.45-6.43-26.84-17.74
			c-0.21-0.45-0.45-0.89-0.72-1.31c-0.18-0.27-0.44-0.49-1.04-1.13c-1.35,1.71-2.59,3.37-3.91,4.95
			c-10.12,12.18-23.02,17.19-38.66,14.67c-12.66-2.04-21.01-12.06-20.43-26.16c0.39-9.57,2.61-19.1,4.37-28.58
			c1.73-9.32,4.04-18.53,5.8-27.85c0.61-3.23,0.7-6.66,0.44-9.95c-0.74-9.39-9.09-13.34-16.38-7.27c-3.92,3.27-7.64,7.92-9.19,12.68
			c-3.6,11.03-6.02,22.45-8.55,33.8c-3.55,15.93-6.88,31.91-10.05,47.92c-0.72,3.64-2.16,4.92-5.9,4.83
			c-9.63-0.25-19.27-0.08-29.61-0.08c0.6-4.15,1.11-7.76,1.78-12.38c-2.22,1.71-3.62,2.81-5.03,3.88
			c-8.51,6.41-17.95,10.25-28.75,9.67c-11.99-0.64-18.13-5.73-21.53-17.27c-0.37-1.25-0.72-2.49-1.35-4.66
			c-1.68,1.91-2.97,3.3-4.17,4.76c-9.26,11.24-20.28,18.7-35.72,17.13c-11.53-1.17-20.09-6.5-25.12-17.12
			c-0.41-0.87-0.96-1.67-1.84-3.17c-1.42,1.77-2.49,3.14-3.59,4.48c-10.09,12.36-22.96,17.82-38.88,15.38
			c-12.03-1.85-21.23-11.56-20.77-23.77c0.38-10.21,2.55-20.39,4.32-30.51c1.8-10.33,4.22-20.55,6.04-30.88
			c0.53-3.03,0.35-6.35-0.24-9.4c-1.38-7.14-6.92-10.07-13.42-6.81c-2.98,1.49-6.18,3.96-7.61,6.83
			c-3.38,6.78-6.66,13.84-8.37,21.17c-5.17,22.2-9.68,44.57-14.19,66.92c-0.88,4.34-2.42,6.08-7.12,5.88
			c-9.42-0.41-18.87-0.12-28.77-0.12c2.1-10.18,4.04-19.57,5.96-28.87c-0.77-0.32-1.19-0.64-1.33-0.54
			c-8.92,6.37-17.93,12.63-26.71,19.19c-15.91,11.9-33.58,15.03-51.95,8.33c-21.77-7.94-25.86-38.31-7.14-49.91
			c0.68-0.42,1.36-1.05,1.73-1.75c4.37-8.39,8.68-16.81,13.34-25.89c-7.71-2.92-12.84-9.57-21.9-7.72
			c-6.1,1.25-8.43-1.18-10.26-7.56c-2.64-9.16-6.91-10.8-15.05-5.59c-5.14,3.29-8.76,7.23-10.06,13.94
			c-5.26,27.12-11.3,54.09-16.84,81.16c-0.82,4.02-2.33,5.51-6.55,5.32c-7.82-0.36-15.66-0.09-23.49-0.12
			c-1.77-0.01-3.55-0.16-5.6-0.25c0.72-3.9,1.34-7.28,2.23-12.13c-2.38,1.74-3.73,2.72-5.08,3.71c-8.84,6.48-18.47,10.62-29.7,9.8
			c-11.62-0.84-17.79-6.06-20.84-17.41c-0.33-1.21-0.78-2.39-0.27-2.22c-4.26,3.41-8.67,6.64-12.75,10.26
			c-13.91,12.34-34.5,13.13-46.83,1.19c-3.6-3.49-6.04-8.17-9.29-12.69c-1.73,1.86-3.71,3.99-5.69,6.11
			c-8.85,9.48-19.86,13.67-32.7,13.41c-11.72-0.24-18.5-5.34-22.09-16.57c-0.34-1.06-0.84-2.06-1.51-3.69
			c-2.15,2.55-3.9,4.72-5.75,6.79c-6.48,7.22-13.86,12.99-23.83,14.5c-21,3.18-36.91-8.57-38.55-29.77
			c-2.28-29.52,5.73-56.1,25.77-78.39c10.23-11.37,23.18-17.01,38.67-16.48c9.47,0.33,13.21,2.33,18.55,11.09
			c0.68-2.71,1.23-4.65,1.65-6.61c3.05-14.32,6.17-28.63,9.04-42.99c0.74-3.72,2.48-5.13,6.25-5.51c9.9-0.99,19.75-2.45,30.37-3.81
			c-1.94,9.29-3.7,17.86-5.52,26.42c-7.58,35.82-15.18,71.64-22.77,107.47c-0.17,0.81-0.49,1.62-0.52,2.44
			c-0.15,4.11-1.27,8.71,2.77,11.54c4.33,3.04,9.43,2.73,13.82,0.38c6.45-3.45,10.6-8.64,10.91-16.59
			c1.02-25.61,8.79-48.71,26.56-67.77c10.74-11.51,24.04-16.96,39.85-15.98c8.56,0.53,12.12,2.79,16.66,10.62
			c0.33-0.38,0.79-0.68,0.91-1.09c2.56-8.58,2.55-8.58,11.76-8.58c7.98,0,15.96,0,24.75,0c-1.58,7.55-3.04,14.61-4.54,21.67
			c-4.41,20.85-8.85,41.69-13.24,62.54c-0.38,1.79-0.62,3.62-0.75,5.44c-0.3,4.29-0.04,8.57,4.06,11.1
			c4.37,2.7,9.49,2.67,13.16-0.44c4.05-3.43,8.39-7.78,9.98-12.6c3.95-11.95,6.62-24.35,9.4-36.66
			c3.56-15.76,6.67-31.61,10.12-47.39c0.29-1.33,1.6-3.45,2.48-3.47C-63.54,114.2-52.77,114.28-41.51,114.28z M239.91,194.72
			c0.2,2.41,0.51,5.22,0.64,8.04c0.61,12.92,13.06,15.03,21.09,9.55c6.3-4.3,9.87-10.32,11.47-17.51
			c3.91-17.53,7.5-35.14,11.43-52.66c1.07-4.76,1.12-9.1-3-12.23c-4.14-3.14-9.28-3.12-13.18-0.4c-4.78,3.34-9.55,7.44-12.67,12.28
			C245.42,157.66,241.54,175.68,239.91,194.72z M-189.92,195.96c0.25,2.81,0.34,5.99,0.84,9.1c1.18,7.31,7.44,11.77,14.56,9.67
			c3.66-1.08,7.93-3.09,9.96-6.03c3.68-5.33,6.94-11.41,8.49-17.65c4.11-16.44,7.19-33.14,10.73-49.73
			c1.99-9.31-4.23-15.42-13.45-13c-6.67,1.75-11.15,6.32-14.78,11.94C-184.45,157.11-188.82,175.87-189.92,195.96z M494.31,196.34
			c0.07,0.99,0.23,2.98,0.35,4.97c0.31,5.35,1.29,10.37,6.94,12.76c5.69,2.41,10.76,0.79,15.41-2.71
			c6.33-4.77,9.4-11.48,11.01-19.01c3.68-17.23,7.37-34.47,10.98-51.71c1.81-8.65-4.56-14.54-13.35-12.37
			c-6.91,1.7-11.49,6.41-15.16,12.18C499.83,157.2,495.2,175.71,494.31,196.34z M-319.41,195.83c0.21,2.38,0.28,5.39,0.78,8.33
			c1.56,9.3,8.92,13.47,17.67,9.79c8.14-3.42,12.75-10.08,14.6-18.45c4.02-18.18,7.77-36.42,11.54-54.65
			c1.85-8.92-4.61-14.87-13.47-12.48c-6.67,1.8-11.15,6.38-14.74,11.99C-313.71,157.09-318.22,175.64-319.41,195.83z M-5.84,203.57
			c-0.82,9.46,3.78,15.21,12.54,16.13c9.99,1.04,19.82-4.31,22.3-13.04c1.34-4.69,1.53-9.83,1.47-14.76
			c-0.08-6.3-0.88-12.6-1.45-18.9c-1-10.98-2.07-21.95-3.2-33.93c-0.99,1.43-1.44,1.89-1.68,2.45
			c-5.84,13.41-11.71,26.81-17.36,40.3c-0.5,1.19,0,3.51,0.92,4.47c3.13,3.26,3.97,6.81,2.51,10.97
			C7.81,204.16,2.86,206.16-5.84,203.57z"/>
		<path class="st0" d="M239.91,194.72c1.63-19.05,5.51-37.06,15.78-52.94c3.13-4.84,7.89-8.93,12.67-12.28
			c3.89-2.72,9.03-2.74,13.18,0.4c4.12,3.13,4.07,7.47,3,12.23c-3.93,17.53-7.53,35.13-11.43,52.66
			c-1.6,7.19-5.17,13.22-11.47,17.51c-8.03,5.48-20.48,3.36-21.09-9.55C240.42,199.94,240.11,197.13,239.91,194.72z"/>
		<path class="st0" d="M-189.92,195.96c1.1-20.09,5.47-38.85,16.36-55.7c3.63-5.62,8.11-10.19,14.78-11.94
			c9.22-2.42,15.43,3.69,13.45,13c-3.54,16.59-6.62,33.29-10.73,49.73c-1.56,6.24-4.82,12.32-8.49,17.65
			c-2.03,2.94-6.3,4.96-9.96,6.03c-7.12,2.09-13.38-2.36-14.56-9.67C-189.58,201.95-189.68,198.77-189.92,195.96z"/>
		<path class="st0" d="M494.31,196.34c0.89-20.63,5.52-39.14,16.17-55.89c3.67-5.78,8.25-10.48,15.16-12.18
			c8.79-2.17,15.16,3.73,13.35,12.37c-3.61,17.25-7.3,34.48-10.98,51.71c-1.6,7.52-4.68,14.23-11.01,19.01
			c-4.65,3.5-9.72,5.12-15.41,2.71c-5.65-2.4-6.63-7.41-6.94-12.76C494.54,199.32,494.38,197.33,494.31,196.34z"/>
		<path class="st0" d="M-319.41,195.83c1.19-20.19,5.7-38.74,16.39-55.46c3.59-5.61,8.07-10.2,14.74-11.99
			c8.86-2.39,15.32,3.56,13.47,12.48c-3.78,18.23-7.53,36.47-11.54,54.65c-1.85,8.38-6.46,15.03-14.6,18.45
			c-8.75,3.68-16.11-0.49-17.67-9.79C-319.12,201.22-319.19,198.21-319.41,195.83z"/>
		<path class="st0" d="M-5.84,203.57c8.71,2.59,13.65,0.59,16.06-6.32c1.45-4.16,0.61-7.71-2.51-10.97
			c-0.92-0.95-1.42-3.27-0.92-4.47c5.65-13.49,11.52-26.89,17.36-40.3c0.24-0.55,0.69-1.02,1.68-2.45
			c1.13,11.98,2.2,22.95,3.2,33.93c0.57,6.29,1.38,12.59,1.45,18.9c0.06,4.93-0.13,10.07-1.47,14.76
			c-2.49,8.73-12.31,14.08-22.3,13.04C-2.06,218.79-6.66,213.03-5.84,203.57z"/>
	</g>
</g>
</svg>
