<svg width="230" height="288" viewBox="0 0 230 288" fill="none" xmlns="http://www.w3.org/2000/svg">
<path fill-rule="evenodd" clip-rule="evenodd" d="M159.008 1.87529C181.446 7.45713 199.528 24.9968 211.982 47.5286C224.332 69.8723 234.143 97.78 228.019 126.729C222.197 154.255 194.518 167.014 181.491 191.672C166.692 219.684 170.606 261.471 147.595 278.959C124.868 296.231 97.2652 284.167 75.7943 271.999C56.5784 261.109 48.0639 236.073 35.5329 215.451C22.5419 194.072 3.14162 177.463 1.26441 149.346C-0.739294 119.336 8.04512 85.9852 25.2083 60.8145C41.8794 36.3656 67.5169 27.902 91.1824 17.4773C113.868 7.48416 137.118 -3.5703 159.008 1.87529Z" fill="#00A99C" fill-opacity="0.08"/>
</svg>
