<svg width="55" height="55" viewBox="0 0 55 55" fill="none" xmlns="http://www.w3.org/2000/svg">
<path fill-rule="evenodd" clip-rule="evenodd" d="M54.0765 41.4838C52.9978 46.8604 51.0768 52.8537 45.3435 54.5456C39.6093 56.2378 32.5393 51.8915 25.9801 49.775C19.7198 47.7551 12.7972 46.9592 7.97905 42.4894C3.11152 37.9738 0.853832 31.7998 0.675195 26.2997C0.513184 21.3114 4.32821 17.962 7.05816 14.1357C9.56045 10.6284 11.8204 7.06271 15.8963 4.96546C20.6568 2.51602 26.0203 -0.953245 32.1183 1.24129C38.2358 3.44286 40.7495 10.1666 44.3825 15.2171C47.1957 19.1279 49.2662 23.0279 50.8213 27.2416C52.6093 32.0863 54.9785 36.9875 54.0765 41.4838Z" fill="#D8ECEC"/>
</svg>
