<svg width="449" height="354" viewBox="0 0 449 354" fill="none" xmlns="http://www.w3.org/2000/svg">
<path fill-rule="evenodd" clip-rule="evenodd" d="M192.077 3.20355C246.689 13.2492 256.677 62.0674 299.991 86.1437C338.087 107.319 400.812 105.681 426.81 133.68C454.835 163.861 452.826 202.494 439.906 236.824C426.304 272.967 399.476 308.302 353.07 329.62C307.086 350.745 246.61 359.301 192.077 350.675C142.376 342.813 117.65 308.248 78.9706 286.262C44.7717 266.823 -4.86663 257.162 -21.2062 229.44C-37.8336 201.23 -14.1698 171.251 -6.39607 141.43C3.05706 105.167 -9.2691 63.0683 29.1361 36.321C69.1501 8.45327 135.957 -7.11955 192.077 3.20355Z" fill="#00A99C" fill-opacity="0.13"/>
</svg>
